<?xml version="1.0" encoding="utf-8"?><!-- Uploaded to: SVG Repo, www.svgrepo.com, Generator: SVG Repo Mixer Tools -->
<svg width="800px" height="800px" viewBox="0 0 24 24" fill="none" xmlns="http://www.w3.org/2000/svg">
<path d="M20.003 18.9423L18.9423 20.003L15.9193 16.98C14.655 18.229 12.9176 19 11 19C8.76823 19 6.78139 17.9557 5.5 16.3303L5.5 18L4 18L4.00001 13.5H8.4138V15H6.38927C7.37111 16.5058 9.07009 17.5 11 17.5C14.0376 17.5 16.5 15.0376 16.5 12H18C18 13.4058 17.5856 14.7149 16.8722 15.8116L20.003 18.9423Z" fill="#1F2328"/>
<path fill-rule="evenodd" clip-rule="evenodd" d="M16.5 7.16965L16.5 5.5L18 5.5L18 10H13.5862V8.5H15.6107C14.6289 6.99416 12.9299 6 11 6C7.96244 6 5.50001 8.46243 5.50001 11.5H4.00001C4.00001 7.63401 7.13401 4.5 11 4.5C13.2318 4.5 15.2186 5.54431 16.5 7.16965Z" fill="#1F2328"/>
</svg>